#!OML:ASF H:\GeneralSubjects\Female5\Project 1\Capture day 1\Session 1\Female5.ASF
:FULLY-SPECIFIED
:DEGREES
65
root -10.7364 15.8712 2.76706 167.168 -80.6052 -158.852
lowerback 6.51446 2.97799 2.23477
upperback -10.5179 4.29029 2.11137
thorax -15.3277 1.76679 0.318289
lowerneck -18.5333 -0.242383 1.23831
upperneck 34.7559 -1.27755 -1.43209
head 15.2529 -0.946111 -1.15331
rclavicle -1.33186e-014 -1.59028e-015
rhumerus -46.2144 20.1576 -87.9055
rradius 31.7119
rwrist -8.66637
rhand -26.0838 -25.157
rfingers 7.12502
rthumb 0.464846 -55.1363
lclavicle -1.33186e-014 -1.59028e-015
lhumerus -43.2294 0.256698 82.4288
lradius 30.7891
lwrist -10.2923
lhand -26.2972 32.89
lfingers 7.12502
lthumb 0.258663 62.8696
rfemur 8.25287 15.2206 39.6727
rtibia -10.8107
rfoot -21.5509 -28.0767
rtoes -4.82094
lfemur -29.0609 -21.1582 -10.5691
ltibia 11.7718
lfoot -23.5482 6.53322
ltoes -64.2586
66
root -10.7439 15.8719 2.76727 167.247 -80.526 -158.934
lowerback 6.49758 2.99728 2.22693
upperback -10.5303 4.31529 2.12369
thorax -15.3338 1.77965 0.332398
lowerneck -18.49 -0.22249 1.28105
upperneck 34.7353 -1.26251 -1.4324
head 15.2331 -0.934361 -1.15729
rclavicle -2.3556e-014 -7.55382e-015
rhumerus -46.2252 20.1799 -87.9112
rradius 31.7202
rwrist -8.91229
rhand -26.2028 -24.8355
rfingers 7.12502
rthumb 0.34984 -54.815
lclavicle -2.3556e-014 -7.55382e-015
lhumerus -43.2675 0.0550536 82.5892
lradius 30.9335
lwrist -10.042
lhand -20.6145 38.7767
lfingers 7.12502
lthumb 5.74652 68.6787
rfemur 8.27111 15.3064 39.7331
rtibia -10.7591
rfoot -21.7068 -27.977
rtoes -4.3588
lfemur -29.0871 -21.0919 -10.5433
ltibia 11.8991
lfoot -23.6691 6.41634
ltoes -64.0481
67
root -10.7519 15.8722 2.77091 167.326 -80.4817 -159.005
lowerback 6.47192 3.01463 2.26128
upperback -10.5399 4.3422 2.12897
thorax -15.3269 1.78829 0.315418
lowerneck -18.5284 -0.240429 1.21998
upperneck 34.7766 -1.30356 -1.34473
head 15.2624 -0.947504 -1.11859
rclavicle -5.86415e-015 3.57812e-015
rhumerus -46.2565 20.0909 -87.8319
rradius 31.7689
rwrist -8.85504
rhand -26.2286 -24.6954
rfingers 7.12502
rthumb 0.324958 -54.6749
lclavicle -5.86415e-015 3.57812e-015
lhumerus -43.2536 -0.0563558 82.7327
lradius 31.0141
lwrist -9.84899
lhand -17.051 41.0214
lfingers 7.12502
lthumb 9.18614 70.8013
rfemur 8.32606 15.3463 39.7196
rtibia -10.8026
rfoot -21.9048 -27.842
rtoes -4.31692
lfemur -29.0847 -20.9429 -10.6207
ltibia 11.9982
lfoot -23.6001 6.27939
ltoes -63.9508
68
root -10.7598 15.8721 2.77643 167.304 -80.4963 -158.995
lowerback 6.47004 3.0053 2.34656
upperback -10.5401 4.33978 2.12077
thorax -15.3183 1.77667 0.259708
lowerneck -18.5981 -0.257209 1.15661
upperneck 34.8384 -1.33896 -1.26806
head 15.3089 -0.96014 -1.08388
rclavicle -3.12092e-014 -1.82882e-014
rhumerus -46.2659 20.0116 -87.7883
rradius 31.7883
rwrist -8.81688
rhand -26.4917 -24.599
rfingers 7.12502
rthumb 0.0708241 -54.5788
lclavicle -3.12092e-014 -1.82882e-014
lhumerus -43.2015 -0.0484788 82.801
lradius 31.0203
lwrist -9.86604
lhand -15.3101 41.4916
lfingers 7.12502
lthumb 10.8657 71.1905
rfemur 8.42133 15.3146 39.6813
rtibia -10.8973
rfoot -21.7873 -28.0136
rtoes -4.77423
lfemur -29.031 -20.8137 -10.7654
ltibia 12.051
lfoot -23.4164 6.22118
ltoes -63.9638
69
root -10.7694 15.8711 2.78133 167.589 -80.5155 -159.308
lowerback 6.43247 2.98447 2.39399
upperback -10.5197 4.31236 2.08943
thorax -15.262 1.75757 0.205727
lowerneck -18.6629 -0.236223 1.15324
upperneck 34.8896 -1.32004 -1.23921
head 15.3494 -0.948515 -1.06957
rclavicle -2.71341e-014 7.95139e-015
rhumerus -46.198 20.0454 -87.8402
rradius 31.7664
rwrist -9.05593
rhand -26.7445 -24.6351
rfingers 7.12502
rthumb -0.173304 -54.6148
lclavicle -2.71341e-014 7.95139e-015
lhumerus -43.0906 -0.0430273 82.8106
lradius 30.9488
lwrist -9.96097
lhand -16.7323 41.1705
lfingers 7.12502
lthumb 9.49367 70.9366
rfemur 8.46797 15.2941 39.6104
rtibia -10.854
rfoot -21.8903 -28.0477
rtoes -4.82282
lfemur -28.9301 -20.8194 -10.9252
ltibia 12.0317
lfoot -23.4433 6.12687
ltoes -63.8544
70
root -10.7763 15.8719 2.78724 168.324 -80.5279 -160.082
lowerback 6.4362 2.96992 2.36962
upperback -10.5064 4.28365 2.03385
thorax -15.2445 1.74371 0.162524
lowerneck -18.7142 -0.214009 1.18835
upperneck 34.9421 -1.30271 -1.24083
head 15.3867 -0.937172 -1.0751
rclavicle 2.79292e-014 1.74931e-014
rhumerus -46.1638 20.104 -87.9229
rradius 31.7554
rwrist -9.24443
rhand -26.514 -24.8132
rfingers 7.12502
rthumb 0.0493429 -54.793
lclavicle 2.79292e-014 1.74931e-014
lhumerus -43.0716 -0.1411 82.8434
lradius 31.0287
lwrist -9.92283
lhand -18.2089 40.7356
lfingers 7.12502
lthumb 8.06874 70.5615
rfemur 8.51508 15.2925 39.4599
rtibia -10.8287
rfoot -22.1637 -27.839
rtoes -4.54515
lfemur -28.8475 -20.83 -11.1367
ltibia 12.0216
lfoot -23.5119 6.00754
ltoes -63.6096
71
root -10.7793 15.874 2.79273 168.668 -80.527 -160.444
lowerback 6.47232 2.96579 2.36786
upperback -10.5139 4.27777 2.01718
thorax -15.2757 1.73919 0.144204
lowerneck -18.7125 -0.209485 1.20342
upperneck 34.9471 -1.29802 -1.25221
head 15.3886 -0.935108 -1.08186
rclavicle 5.96354e-016 2.54444e-014
rhumerus -46.1606 20.0931 -87.9341
rradius 31.7287
rwrist -9.26175
rhand -26.264 -24.927
rfingers 7.12502
rthumb 0.290756 -54.9066
lclavicle 5.96354e-016 2.54444e-014
lhumerus -43.1172 -0.354836 82.9894
lradius 31.1467
lwrist -9.67084
lhand -18.2881 40.7006
lfingers 7.12502
lthumb 7.99225 70.5295
rfemur 8.50839 15.2952 39.368
rtibia -10.7905
rfoot -22.3783 -27.6651
rtoes -4.5763
lfemur -28.8633 -20.7299 -11.2471
ltibia 12.098
lfoot -23.4402 5.9344
ltoes -63.4853
72
root -10.7813 15.8754 2.79547 168.458 -80.4895 -160.213
lowerback 6.48677 2.97665 2.40304
upperback -10.5418 4.3008 2.05015
thorax -15.32 1.74646 0.156374
lowerneck -18.692 -0.211985 1.15922
upperneck 34.9665 -1.29974 -1.22144
head 15.3937 -0.938208 -1.06179
rclavicle 1.44119e-014 5.1684e-015
rhumerus -46.2271 20.1421 -87.983
rradius 31.7483
rwrist -9.47607
rhand -26.3849 -24.8681
rfingers 7.12502
rthumb 0.174039 -54.8478
lclavicle 1.44119e-014 5.1684e-015
lhumerus -43.1308 -0.528394 83.1449
lradius 31.1095
lwrist -9.42941
lhand -18.4246 40.8612
lfingers 7.12502
lthumb 7.8605 70.6951
rfemur 8.46959 15.3376 39.4454
rtibia -10.7286
rfoot -22.3654 -27.7315
rtoes -4.52363
lfemur -28.9144 -20.6417 -11.184
ltibia 12.1541
lfoot -23.419 5.82415
ltoes -63.478
73
root -10.7834 15.8768 2.79796 168.013 -80.4345 -159.752
lowerback 6.51568 2.98427 2.47461
upperback -10.5759 4.32609 2.0932
thorax -15.3796 1.75072 0.158565
lowerneck -18.6146 -0.208504 1.1872
upperneck 34.9413 -1.29387 -1.25109
head 15.3631 -0.937245 -1.07695
rclavicle -1.0635e-014 9.93923e-015
rhumerus -46.3482 20.1904 -88.0375
rradius 31.8293
rwrist -9.61198
rhand -26.4609 -24.7435
rfingers 7.12502
rthumb 0.100595 -54.7232
lclavicle -1.0635e-014 9.93923e-015
lhumerus -43.1573 -0.624108 83.2317
lradius 31.0469
lwrist -9.28356
lhand -16.7019 41.3336
lfingers 7.12502
lthumb 9.52294 71.0984
rfemur 8.56151 15.4028 39.6806
rtibia -10.8256
rfoot -22.1376 -27.986
rtoes -4.21511
lfemur -28.9387 -20.6001 -11.0692
ltibia 12.18
lfoot -23.4387 5.76504
ltoes -63.4201
74
root -10.786 15.8776 2.80171 167.534 -80.4003 -159.28
lowerback 6.52344 2.97974 2.54161
upperback -10.5755 4.33446 2.1418
thorax -15.3839 1.75005 0.173903
lowerneck -18.5666 -0.209148 1.23692
upperneck 34.8771 -1.28386 -1.31701
head 15.32 -0.935405 -1.1096
rclavicle 1.63003e-014 -7.95139e-016
rhumerus -46.3693 20.1399 -87.9736
rradius 31.9023
rwrist -9.4399
rhand -26.2314 -24.8664
rfingers 7.12502
rthumb 0.322294 -54.8459
lclavicle 1.63003e-014 -7.95139e-016
lhumerus -43.1203 -0.595671 83.2483
lradius 30.9299
lwrist -9.27892
lhand -13.1974 42.0425
lfingers 7.12502
lthumb 12.9029 71.6236
rfemur 8.47472 15.3901 39.6357
rtibia -10.7008
rfoot -22.1514 -27.8798
rtoes -4.46287
lfemur -28.9639 -20.5329 -11.0038
ltibia 12.2639
lfoot -23.4223 5.76703
ltoes -63.3594
75
root -10.7876 15.8769 2.80557 167.307 -80.374 -159.065
lowerback 6.52466 2.9801 2.54872
upperback -10.552 4.3412 2.18557
thorax -15.3595 1.75662 0.217578
lowerneck -18.7007 -0.213954 1.0871
upperneck 34.9568 -1.2898 -1.18361
head 15.3922 -0.93804 -1.03116
rclavicle 3.13086e-014 6.36111e-015
rhumerus -46.3012 20.1427 -87.9178
rradius 31.9033
rwrist -9.33637
rhand -26.028 -24.9704
rfingers 7.12502
rthumb 0.518696 -54.9496
lclavicle 3.13086e-014 6.36111e-015
lhumerus -42.9766 -0.389254 83.1847
lradius 30.7018
lwrist -9.53902
lhand -13.1827 41.9919
lfingers 7.12502
lthumb 12.9171 71.5721
rfemur 8.45985 15.4083 39.7009
rtibia -10.6017
rfoot -22.3403 -27.7428
rtoes -4.64258
lfemur -29.0036 -20.4623 -10.9981
ltibia 12.3786
lfoot -23.4352 5.65743
ltoes -63.1556
76
root -10.7897 15.876 2.80984 167.615 -80.3639 -159.399
lowerback 6.53464 2.98341 2.50307
upperback -10.5217 4.3409 2.18486
thorax -15.332 1.76323 0.241605
lowerneck -18.8625 -0.20559 0.965572
upperneck 35.0514 -1.28622 -1.05037
head 15.4782 -0.932641 -0.956285
rclavicle -2.27608e-014 -1.23246e-014
rhumerus -46.1805 20.1259 -87.8879
rradius 31.7766
rwrist -9.19001
rhand -26.0961 -24.6815
rfingers 7.12502
rthumb 0.452941 -54.6607
lclavicle -2.27608e-014 -1.23246e-014
lhumerus -42.9277 -0.434343 83.2202
lradius 30.727
lwrist -9.52512
lhand -16.6766 41.3917
lfingers 7.12502
lthumb 9.54739 71.1554
rfemur 8.46451 15.4296 39.676
rtibia -10.4969
rfoot -22.4354 -27.7164
rtoes -4.62598
lfemur -28.9521 -20.4899 -11.0919
ltibia 12.3641
lfoot -23.4964 5.5684
ltoes -63.0734
